<svg xmlns="http://www.w3.org/2000/svg" width="16" height="17" viewBox="0 0 16 17" fill="none">
  <path fill-rule="evenodd" clip-rule="evenodd" d="M8 16.1836C12.4183 16.1836 16 12.6019 16 8.18359C16 3.76532 12.4183 0.183594 8 0.183594C3.58172 0.183594 0 3.76532 0 8.18359C0 12.6019 3.58172 16.1836 8 16.1836ZM11.8566 6.37472C12.1002 6.03973 12.0261 5.57067 11.6911 5.32704C11.3561 5.08341 10.8871 5.15748 10.6434 5.49247L7.15969 10.2826L5.28033 8.40326C4.98744 8.11037 4.51256 8.11037 4.21967 8.40326C3.92678 8.69616 3.92678 9.17103 4.21967 9.46392L6.71967 11.9639C6.87477 12.119 7.08999 12.1985 7.30867 12.1813C7.52734 12.1641 7.72754 12.0521 7.85655 11.8747L11.8566 6.37472Z" fill="#2F929C"/>
</svg>