  <svg
    xmlns="http://www.w3.org/2000/svg"
    width="47"
    height="47"
    viewBox="0 0 47 47"
    fill="none"
  >
    <g clip-path="url(#clip0_2773_24725)">
      <path
        d="M42.2719 46.2362C41.0109 45.9976 40.0928 45.232 39.2182 44.3447C36.1272 41.2068 33.0063 38.1012 29.9004 34.9732C29.642 34.711 29.4643 34.6513 29.1214 34.8601C26.0497 36.7515 22.4816 37.6783 18.878 37.5208C14.4366 37.353 10.5355 35.7723 7.21463 32.812C3.89377 29.8518 1.87243 26.1572 1.18912 21.7653C0.610079 18.1744 1.12976 14.4922 2.67997 11.202C4.32801 7.5675 7.11312 4.56782 10.615 2.65562C13.8129 0.880986 17.2555 0.146525 20.9118 0.406258C24.0827 0.621838 27.1416 1.66522 29.7836 3.43234C32.4573 5.18541 34.6279 7.60551 36.0812 10.4538C37.497 13.2058 38.202 16.2683 38.1319 19.3625C38.0618 22.4567 37.2189 25.4842 35.6799 28.1692C35.2389 28.9347 35.2302 28.931 35.8712 29.5697C38.8952 32.5846 41.9079 35.6119 44.9505 38.6094C45.8388 39.4794 46.6004 40.404 46.8389 41.6654V42.6508C46.8107 42.719 46.7879 42.7892 46.7706 42.8609C46.5998 43.8508 46.0688 44.7424 45.2797 45.3638C44.6834 45.8484 43.9814 46.056 43.2609 46.2337L42.2719 46.2362ZM29.1413 30.0494C33.3492 26.5573 35.7942 19.9832 33.2138 13.4837C30.9626 7.81177 25.1595 3.63615 18.1053 4.30599C11.8822 4.89753 6.50027 9.43479 5.14235 16.0139C3.8801 22.1381 6.74377 27.7454 10.4535 30.4297C10.4808 30.3253 10.5106 30.2247 10.5318 30.1227C11.153 27.0818 13.5731 24.8896 16.6703 24.7156C18.6196 24.6062 20.5801 24.6572 22.5356 24.6696C24.027 24.6616 25.4773 25.1588 26.6503 26.0801C27.9486 27.0892 28.7586 28.4115 29.1413 30.0494Z"
        fill="#853232"
      />
      <path
        d="M25.8934 16.6043C25.8711 19.9597 23.1267 22.6838 19.7996 22.6478C18.1907 22.6353 16.6525 21.9849 15.5224 20.8394C14.3923 19.6938 13.7626 18.1466 13.7716 16.5372C13.7902 13.188 16.5433 10.4577 19.8667 10.4925C21.4756 10.505 23.0139 11.1556 24.1439 12.3015C25.2738 13.4473 25.903 14.9949 25.8934 16.6043Z"
        fill="#853232"
      />
    </g>
    <defs>
      <clipPath id="clip0_2773_24725">
        <rect
          width="45.8809"
          height="45.8809"
          fill="white"
          transform="translate(0.960938 0.351562)"
        />
      </clipPath>
    </defs>
  </svg>
