<svg xmlns="http://www.w3.org/2000/svg" width="58" height="48" viewBox="0 0 58 48" fill="none">
  <g clip-path="url(#clip0_2773_24674)">
    <path d="M10.1932 35.9031C8.63845 36.3172 7.00686 36.3494 5.43703 35.9969C4.07235 35.6964 2.85127 34.9378 1.97631 33.8469C1.10136 32.7559 0.625122 31.3983 0.626592 29.999C0.610146 27.1961 0.610146 24.3964 0.626592 21.6C0.635862 20.2248 1.10253 18.8919 1.95285 17.8119C2.80317 16.732 3.98864 15.9666 5.32191 15.6367C5.4662 15.6075 5.60091 15.5426 5.71379 15.448C5.82667 15.3534 5.91413 15.232 5.96824 15.0949C9.09297 8.55187 14.0267 3.95875 20.9077 1.65807C28.8297 -0.993385 36.3669 0.0606116 43.3499 4.63561C47.2969 7.2212 50.221 10.7373 52.2159 15.0191C52.2749 15.1778 52.3732 15.3189 52.5014 15.4292C52.6297 15.5395 52.7838 15.6154 52.9494 15.6499C54.2571 15.9824 55.4194 16.736 56.2577 17.7947C57.0959 18.8534 57.5636 20.1586 57.5888 21.5094C57.6217 24.3717 57.6217 27.2345 57.5888 30.0979C57.5642 31.4724 57.0815 32.7993 56.2173 33.8676C55.3531 34.9359 54.1571 35.6842 52.8194 35.9937C52.6401 36.0166 52.4719 36.0932 52.3366 36.2133C52.2014 36.3335 52.1054 36.4917 52.0613 36.6672C50.705 40.5527 48.0622 43.1175 44.1327 44.3614C44.0594 44.3839 43.992 44.4223 43.9351 44.4738C43.8783 44.5253 43.8334 44.5887 43.8038 44.6595C43.5522 45.9589 42.7052 46.7197 41.4717 46.8169C39.8584 46.9437 38.2286 46.858 36.607 46.8416C36.3619 46.8396 36.1219 46.7707 35.913 46.6423C35.4196 46.3129 34.9657 46.448 34.451 46.5649C26.3925 48.3946 19.4144 46.4266 13.5646 40.5505C12.2926 39.2373 11.2049 37.7569 10.3313 36.1501C10.2919 36.0595 10.2343 35.9722 10.1932 35.9031ZM17.4968 9.98464C15.4378 11.3499 13.0268 14.1463 11.7539 16.61C11.5895 16.9394 11.4678 17.2342 11.6421 17.6294C11.7508 17.9468 11.795 18.2828 11.772 18.6175C11.7808 23.4154 11.7808 28.2127 11.772 33.0095C11.7832 33.3595 11.7342 33.7088 11.6273 34.0421C11.5726 34.1885 11.5526 34.3456 11.5688 34.5011C11.5851 34.6566 11.6372 34.8061 11.721 34.938C15.4181 42.1282 23.544 46.3854 31.5548 45.3133C32.4643 45.1914 33.3639 44.9839 34.275 44.8192C34.2536 44.6134 34.2405 44.5096 34.2322 44.4042C34.0678 42.3835 34.9542 41.1846 36.9623 41.0018C38.3487 40.875 39.7581 40.9886 41.1527 40.9787C41.3678 40.9897 41.5809 40.932 41.7612 40.814C43.6514 39.2223 45.2272 37.2901 46.4072 35.1175C46.6325 34.7107 46.7361 34.3468 46.5519 33.8824C46.4591 33.5764 46.4235 33.256 46.4466 32.9371C46.4466 28.171 46.4466 23.4044 46.4466 18.6373C46.4466 18.219 46.5815 17.8007 46.6292 17.3807C46.6646 17.2117 46.6474 17.0358 46.5799 16.8768C45.9697 15.8706 45.3925 14.8215 44.6886 13.8778C43.9847 12.9342 43.1015 12.0498 42.2447 11.0782C42.1345 11.345 42.0802 11.48 42.0227 11.62C41.2399 13.7609 39.865 15.4407 38.0559 16.7961C37.8344 16.9795 37.5676 17.0995 37.2836 17.1436C36.9997 17.1877 36.7091 17.1541 36.4426 17.0464C32.9988 15.8837 30.0517 13.952 27.4762 11.424C27.2197 11.1704 26.9829 10.9003 26.7082 10.6137C26.1145 11.3483 25.5455 12.0235 25.0126 12.7234C24.6623 13.1862 24.2545 13.3146 23.697 13.168C21.4044 12.562 19.2533 11.6924 17.4968 9.98464ZM9.99914 25.8308C9.99914 23.4577 9.99914 21.0845 9.99914 18.7098C9.99914 17.6953 9.52878 17.2276 8.52887 17.2144C7.95162 17.2144 7.37765 17.2012 6.79711 17.2144C5.62017 17.2343 4.4985 17.718 3.67528 18.5605C2.85207 19.4031 2.39367 20.5366 2.39947 21.7153C2.3874 24.4535 2.3874 27.1922 2.39947 29.9315C2.3969 30.993 2.77503 32.0201 3.46502 32.8259C4.15502 33.6317 5.11102 34.1627 6.15901 34.3221C6.88921 34.4308 7.63914 34.383 8.38743 34.388C9.58799 34.388 9.99914 33.9779 9.99914 32.7658C10.0002 30.4558 10.0002 28.1441 9.99914 25.8308ZM48.2212 25.7962V32.9634C48.2425 33.9268 48.7047 34.388 49.6618 34.3929C50.2539 34.3929 50.8476 34.4044 51.4396 34.3929C52.594 34.3763 53.6966 33.9102 54.5135 33.0933C55.3305 32.2765 55.7976 31.1731 55.8159 30.0172C55.8521 27.2175 55.8471 24.4178 55.8159 21.6181C55.8041 20.5174 55.3836 19.4605 54.6364 18.6532C53.8891 17.8458 52.8686 17.3459 51.7735 17.2506C51.1255 17.1897 50.4693 17.2177 49.8164 17.216C48.6537 17.216 48.2212 17.6475 48.2195 18.8135C48.2195 21.1411 48.2201 23.4687 48.2212 25.7962ZM50.369 15.3584C46.9104 7.96558 38.4917 1.56914 27.9137 2.08955C17.8291 2.58362 10.5567 9.30778 7.88583 15.36L10.1883 15.6466C14.4346 8.49752 20.6561 4.41329 29.1011 4.41164C37.5461 4.40999 43.8038 8.50082 48.0337 15.6449L50.369 15.3584ZM18.9753 8.91747C19.2385 9.13651 19.4046 9.28802 19.5822 9.41153C20.7449 10.2794 22.0655 10.8097 23.4371 11.2363C23.7397 11.3301 23.8993 11.2511 24.0834 11.0139C24.6689 10.2564 25.2774 9.51529 25.881 8.7709C26.3744 8.17309 26.9483 8.17803 27.4565 8.73796C28.0699 9.41318 28.6817 10.095 29.3478 10.7142C31.4775 12.6905 33.8819 14.2385 36.6383 15.1986C36.7316 15.2309 36.8306 15.2436 36.9291 15.236C37.0275 15.2283 37.1233 15.2005 37.2106 15.1542C38.8009 13.9388 39.9373 12.4006 40.5212 10.4622C40.6478 10.0439 40.5721 9.80349 40.2021 9.57128C34.2871 5.73957 28.0529 5.1143 21.4998 7.6955C20.6578 8.02652 19.8667 8.48105 18.9753 8.91747ZM43.243 41.9191C43.6706 42.6371 43.6722 42.6404 44.2988 42.4131C46.6818 41.5304 48.458 39.9428 49.6848 37.7278C49.9447 37.2584 50.124 36.7397 50.3328 36.2753L47.9876 35.9574C46.7683 38.2084 45.1621 40.2265 43.243 41.9191ZM39.0723 45.2523C39.8091 45.1848 40.5837 45.1535 41.3435 45.03C41.896 44.9411 42.077 44.5985 42.0753 43.9414C42.0737 43.2843 41.9108 42.9533 41.3435 42.8529C39.8321 42.5858 38.286 42.5814 36.7731 42.8397C36.1745 42.9369 35.9887 43.2712 35.9952 43.9398C35.9952 44.643 36.1893 44.9543 36.8175 45.0498C37.5461 45.1618 38.2911 45.1848 39.0723 45.2523Z" fill="#853232"/>
    <path d="M29.1207 33.1612C30.7028 33.1612 32.2838 33.1612 33.8637 33.1612C34.6498 33.1612 34.9689 33.4906 34.9475 34.2811C34.8702 37.2817 32.4675 39.691 29.3559 39.8952C26.5124 40.0813 23.7988 37.8795 23.3613 35.0287C23.317 34.7563 23.29 34.4812 23.2808 34.2053C23.2659 33.5021 23.5949 33.1579 24.2938 33.1562C25.8989 33.1612 27.5106 33.1612 29.1207 33.1612ZM25.2016 34.9563C25.4796 36.7678 27.3265 38.1776 29.2605 38.1067C31.0876 38.0392 32.8786 36.5373 33.0003 34.9563H25.2016Z" fill="#853232"/>
    <path d="M21.082 28.258C20.5951 28.2573 20.1195 28.1116 19.7156 27.8394C19.3117 27.5672 18.9978 27.1809 18.8138 26.7295C18.6298 26.2782 18.5841 25.7822 18.6824 25.3048C18.7807 24.8273 19.0186 24.3899 19.3658 24.0482C19.7131 23.7066 20.154 23.476 20.6324 23.386C21.1109 23.296 21.6053 23.3505 22.0527 23.5427C22.5001 23.7348 22.8803 24.0559 23.145 24.465C23.4097 24.8742 23.5468 25.353 23.539 25.8404C23.5295 26.486 23.2662 27.1019 22.8063 27.5545C22.3463 28.007 21.7268 28.2598 21.082 28.258Z" fill="#853232"/>
    <path d="M37.1692 28.2578C36.6822 28.2643 36.2043 28.1256 35.7963 27.8592C35.3883 27.5929 35.0687 27.211 34.8782 26.7621C34.6876 26.3133 34.6348 25.8178 34.7264 25.3388C34.818 24.8598 35.0499 24.4189 35.3925 24.0723C35.7352 23.7256 36.1731 23.489 36.6505 23.3924C37.1279 23.2958 37.6232 23.3437 38.0733 23.5299C38.5234 23.7162 38.9081 24.0323 39.1782 24.4382C39.4483 24.844 39.5917 25.3212 39.5901 25.8089C39.5893 26.4539 39.3347 27.0725 38.8816 27.5309C38.4285 27.9893 37.8133 28.2504 37.1692 28.2578Z" fill="#853232"/>
  </g>
  <defs>
    <clipPath id="clip0_2773_24674">
      <rect width="57" height="47" fill="white" transform="translate(0.613281 0.226562)"/>
    </clipPath>
  </defs>
</svg>