<svg xmlns="http://www.w3.org/2000/svg" width="60" height="58" viewBox="0 0 60 58" fill="none">
  <g clip-path="url(#clip0_2773_24689)">
    <path d="M24.2858 23.6382C24.4474 22.7192 24.3006 22.0198 23.6579 21.3451C22.7538 20.3941 22.2789 19.1828 22.0729 17.8728C22.0273 17.6447 21.8946 17.4433 21.7028 17.3116C20.9208 16.8367 20.5285 16.1397 20.3953 15.2615C20.2925 14.5929 20.1848 13.9252 20.0721 13.2583C19.8995 12.253 20.1955 11.408 20.89 10.6679C21.0841 10.4513 21.2034 10.178 21.2304 9.88835C21.297 8.74243 21.281 7.59158 21.3538 6.44566C21.5437 3.10657 24.3635 0.346001 27.7038 0.267057C29.3407 0.228819 31.0047 0.149875 32.6131 0.381773C35.8437 0.848036 38.0763 3.49266 38.212 6.7602C38.2552 7.80497 38.233 8.85715 38.2835 9.89699C38.2998 10.1719 38.4095 10.433 38.5944 10.6371C39.3628 11.3982 39.6046 12.2998 39.443 13.3385C39.332 14.0465 39.2173 14.7545 39.0902 15.4601C39.0293 15.8462 38.8857 16.2147 38.6692 16.5402C38.4527 16.8657 38.1684 17.1406 37.8358 17.3461C37.6473 17.4778 37.5152 17.6754 37.4657 17.8999C37.1968 19.464 36.4863 20.7765 35.4477 21.9705C35.1628 22.2998 35.1949 22.9573 35.2109 23.4581C35.2109 23.6086 35.6475 23.7998 35.9115 23.8775C37.7963 24.4338 39.6885 24.9666 41.5782 25.5032C44.2537 26.2618 46.1348 28.7029 46.1533 31.6016C46.1866 36.9143 46.1681 42.227 46.1533 47.5397C46.1433 47.6722 46.1052 47.8011 46.0413 47.9177C45.9775 48.0343 45.8895 48.1359 45.7832 48.2156C40.6625 51.3528 35.5316 54.4744 30.3904 57.5804C30.209 57.6902 29.8365 57.6482 29.6367 57.5323C26.2923 55.58 22.9561 53.6139 19.6281 51.6337C17.7236 50.5075 15.8227 49.3727 13.9108 48.2601C13.5889 48.0726 13.4705 47.8616 13.4717 47.4842C13.484 42.1505 13.4717 36.8181 13.484 31.4857C13.4927 28.4241 15.2948 26.1533 18.2614 25.3478C20.2769 24.7952 22.2801 24.2068 24.2858 23.6382ZM36.0521 16.0941C36.6491 16.0497 37.3017 16.0941 37.4559 15.4046C37.6469 14.5025 37.7894 13.5909 37.8826 12.6736C37.919 12.4449 37.8691 12.2108 37.7426 12.0168C37.6161 11.8229 37.422 11.6828 37.1981 11.6239C36.7466 11.5005 36.7047 11.2403 36.6936 10.8653C36.6528 9.32834 36.6738 7.78154 36.5233 6.2557C36.4147 5.14198 35.9279 4.09906 35.1439 3.30054C34.36 2.50202 33.3262 1.99607 32.2147 1.86691C30.9171 1.72012 29.5948 1.76823 28.2836 1.76699C25.0876 1.76699 22.8919 3.92068 22.85 7.09818C22.8303 8.54877 22.85 9.99937 22.85 11.3797C21.8311 11.7707 21.4746 12.1494 21.5499 12.7747C21.651 13.6074 21.8064 14.435 21.9569 15.2615C22.0383 15.7117 22.327 16.0521 22.7846 16.0275C23.4186 15.9942 23.4556 16.3334 23.4852 16.8182C23.6851 20.0906 26.0608 22.4848 29.3271 22.7389C29.385 22.7528 29.4404 22.7757 29.4911 22.8068V24.2488C28.1849 24.4276 27.034 24.0946 25.9436 23.4211C25.8079 24.8852 25.8067 24.8803 24.4153 25.2713C22.3866 25.847 20.3587 26.4267 18.3317 27.0106C16.4124 27.5607 15.0012 29.2802 14.9889 31.2575C14.9556 36.4283 14.9716 41.5979 14.9889 46.7688C15.0008 46.8803 15.0364 46.988 15.0934 47.0846C15.1505 47.1812 15.2275 47.2645 15.3195 47.3288C20.0717 50.1633 24.8326 52.9835 29.6022 55.7893C29.7006 55.8407 29.8093 55.8695 29.9202 55.8735C30.0312 55.8776 30.1417 55.8568 30.2436 55.8128C34.8766 53.0168 39.501 50.2069 44.1168 47.383C44.2017 47.3229 44.2726 47.2451 44.3248 47.1551C44.3769 47.0651 44.409 46.9648 44.419 46.8613C44.4313 41.6288 44.4498 36.3975 44.4066 31.1662C44.3894 29.1926 42.9832 27.5114 41.0885 26.9723C39.6897 26.5764 38.2922 26.173 36.8946 25.7771C36.3346 25.6192 35.7721 25.4712 35.143 25.2997V27.2486H33.5617C33.5617 25.3749 33.5506 23.5481 33.5765 21.725C33.5765 21.5264 33.7603 21.2859 33.9243 21.1391C34.921 20.2497 35.5945 19.1729 35.8437 17.8568C35.951 17.3029 35.9806 16.7256 36.0521 16.0941Z" fill="#853232"/>
    <path d="M12.2561 47.5003C11.2508 46.9069 10.3552 46.3815 9.46218 45.8523C6.53386 44.1254 3.61046 42.3812 0.671032 40.6716C0.297281 40.4508 0.1875 40.2115 0.1875 39.797C0.203535 36.289 0.1875 32.7858 0.198601 29.2741C0.198601 26.923 1.50364 25.2257 3.77575 24.5794C4.83903 24.2772 5.8986 23.9626 6.96558 23.6703C7.3936 23.5543 7.47995 23.373 7.17898 23.0375C6.54404 22.3337 6.10545 21.4752 5.90724 20.5483C5.85554 20.3769 5.75733 20.2232 5.62353 20.1042C4.4258 18.9632 4.22721 16.479 5.21401 15.1308C5.32416 14.9435 5.38447 14.7312 5.38917 14.514C5.47058 13.5766 5.42 12.6132 5.62353 11.7041C6.09596 9.58495 8.04612 8.05294 10.2171 8.01717C11.3827 7.99867 12.5731 7.94439 13.7104 8.14052C16.0269 8.54881 17.6057 10.5471 17.6576 12.9018C17.6576 13.2299 17.6576 13.5593 17.6378 13.8886C17.5946 14.4881 17.5823 15.0568 18.0745 15.5329C18.2622 15.7272 18.3689 15.9856 18.373 16.2557C18.3212 17.6261 18.5087 19.078 17.2542 20.1079C17.154 20.2049 17.0867 20.3309 17.0618 20.4681C16.86 21.3941 16.4233 22.2526 15.7937 22.961C15.6827 23.0844 15.6346 23.2645 15.5298 23.4717L17.7834 24.1341C17.1074 24.4461 16.4894 24.741 15.864 25.0185C15.1572 25.3318 14.0804 24.6632 14.0755 23.9157C14.0755 23.7727 14.0878 23.6271 14.0755 23.4853C14.0126 22.8451 14.1408 22.3344 14.6836 21.8706C15.3102 21.334 15.3891 20.9023 15.7666 18.9719C16.4734 19.0113 16.7164 18.6018 16.7411 17.9468C16.7546 17.6015 16.9125 17.2524 16.8792 16.9169C16.8508 16.6258 16.7176 16.2101 16.5092 16.1028C16.1268 15.9103 16.0959 15.6661 16.0947 15.3232C16.0947 14.5646 16.0848 13.8047 16.054 13.0474C15.9677 10.8962 14.5837 9.53931 12.4423 9.51957C11.6023 9.51217 10.7524 9.47887 9.92475 9.58741C8.19785 9.81191 7.02849 11.191 6.98162 12.9179C6.95818 13.7579 6.96188 14.6004 6.90144 15.4391C6.88664 15.6476 6.66337 15.8376 6.55359 16.0448C6.40187 16.3322 6.18354 16.6196 6.14777 16.923C6.112 17.277 6.27112 17.6459 6.30689 18.0122C6.36857 18.629 6.53262 19.1224 7.18638 19.0373C7.45281 19.8637 7.69088 20.6174 7.94251 21.3661C7.9841 21.5052 8.0661 21.6289 8.17811 21.7213C9.05883 22.3307 8.97742 23.2299 8.96015 24.1328C8.95151 24.5732 8.80596 24.8026 8.37177 24.921C6.96928 25.3022 5.57789 25.7253 4.17787 26.1114C2.67547 26.5221 1.79105 27.6051 1.79105 29.147C1.77995 32.4294 1.79105 35.7117 1.77625 38.994C1.77625 39.39 1.93784 39.5713 2.24498 39.7514C5.31516 41.5634 8.3693 43.405 11.4568 45.1887C12.0735 45.5427 12.3831 45.9152 12.2672 46.622C12.224 46.8613 12.2561 47.1117 12.2561 47.5003Z" fill="#853232"/>
    <path d="M41.6696 24.1794C42.2542 24.0067 42.8377 23.8205 43.4285 23.665C43.8763 23.5417 43.9022 23.3209 43.6296 23.01C42.9989 22.3028 42.5599 21.4458 42.3542 20.5208C42.3123 20.3669 42.2297 20.2271 42.1149 20.1163C40.8629 18.8828 40.647 16.5169 41.6498 15.1058C41.7485 14.9338 41.8008 14.7391 41.8015 14.5408C41.8472 13.7637 41.8077 12.9768 41.9138 12.2095C42.069 11.0698 42.6242 10.0223 43.4803 9.2541C44.3364 8.48589 45.4377 8.04694 46.5875 8.01563C47.7717 7.98972 48.983 7.94408 50.1412 8.14638C52.3443 8.52999 53.88 10.3987 54.0231 12.6252C54.0477 13.0138 54.0687 13.4036 54.0712 13.7933C54.0712 14.4483 54.0268 15.1119 54.5905 15.609C54.656 15.6881 54.704 15.7802 54.7311 15.8792C55.1813 16.9474 54.6521 19.333 53.8072 20.1274C53.6798 20.2774 53.5789 20.448 53.5087 20.6319C53.1238 21.3917 52.7945 22.1848 52.3492 22.9077C51.989 23.4911 51.9594 23.5553 52.6415 23.7501C53.6851 24.0487 54.7294 24.3443 55.7746 24.637C57.911 25.2303 59.189 26.8771 59.1964 29.1035C59.2079 32.6725 59.2042 36.2418 59.1853 39.8115C59.1853 40.0582 59.0224 40.4221 58.8226 40.5418C55.0777 42.7892 51.3143 44.9984 47.5534 47.2187C47.4695 47.268 47.3757 47.2976 47.2055 47.3729C47.2055 46.8191 47.1562 46.3281 47.2289 45.8545C47.2585 45.6534 47.5139 45.4412 47.7223 45.3203C50.8423 43.4693 53.9671 41.6293 57.0969 39.8004C57.5028 39.5636 57.6545 39.307 57.6508 38.8334C57.6273 35.7151 57.6421 32.5968 57.6372 29.4785C57.6372 27.5469 56.8971 26.5823 55.0333 26.0531C53.7135 25.683 52.3998 25.2797 51.0738 24.9294C50.6075 24.806 50.4188 24.5593 50.457 24.1042C50.4731 23.9401 50.4731 23.7748 50.457 23.6108C50.3744 22.941 50.5557 22.4291 51.0886 21.9455C51.7448 21.351 52.0174 20.5147 52.0544 19.6192C52.0692 19.2738 52.1124 19.0024 52.5873 18.9617C52.7637 18.9481 52.9993 18.6435 53.0646 18.4276C53.188 18.0205 53.2015 17.5802 53.2706 17.1559C53.352 16.6625 53.2447 16.2788 52.739 16.0457C52.6156 15.9877 52.533 15.7324 52.5231 15.5634C52.475 14.7 52.4627 13.8365 52.4269 12.9805C52.3492 11.1549 51.0947 9.7931 49.2692 9.66975C48.2454 9.58915 47.2161 9.61023 46.1965 9.73266C44.5633 9.94975 43.4594 11.2684 43.3903 12.904C43.3545 13.7674 43.3224 14.6309 43.3052 15.4869C43.299 15.7854 43.2854 16.0198 42.9351 16.153C42.7637 16.2184 42.5466 16.4873 42.5564 16.6464C42.5787 17.3193 42.6726 17.988 42.8365 18.641C42.8981 18.8618 43.3299 18.979 43.6999 19.2084C43.7246 19.4156 43.7468 19.7622 43.8097 20.1015C43.9589 20.9094 44.3031 21.6298 44.9359 22.1663C45.2664 22.45 45.4219 22.7461 45.3614 23.1716C45.3509 23.3149 45.3509 23.4588 45.3614 23.6021C45.3614 24.7739 45.1431 25.0194 43.9787 25.1415C43.8793 25.1576 43.7774 25.1483 43.6826 25.1144C43.0091 24.8159 42.348 24.4989 41.6696 24.1794Z" fill="#853232"/>
    <path d="M29.8393 49.6567C27.3608 49.6379 24.9897 48.6422 23.2408 46.8858C21.4919 45.1295 20.5064 42.7542 20.4981 40.2756C20.4898 37.797 21.4595 35.4152 23.1966 33.6472C24.9337 31.8792 27.298 30.8677 29.7764 30.8323C34.9571 30.794 39.22 35.0262 39.2299 40.218C39.2384 41.4558 39.0016 42.6831 38.5333 43.8289C38.065 44.9747 37.3743 46.0165 36.5013 46.894C35.6282 47.7716 34.59 48.4675 33.4466 48.9417C32.3032 49.4158 31.0771 49.6589 29.8393 49.6567ZM33.245 33.2771V33.9567C33.245 36.0895 33.2524 38.2222 33.2351 40.3549C33.235 40.7003 33.1671 41.0422 33.0353 41.3614C32.2606 43.1451 31.4527 44.9152 30.6608 46.6914C30.4881 47.0787 30.3068 47.4463 29.7973 47.4315C29.3224 47.4229 29.1498 47.0762 28.9845 46.7074C28.1876 44.9226 27.376 43.1327 26.5841 41.3331C26.467 41.0525 26.4071 40.7514 26.4077 40.4474C26.3929 38.274 26.399 36.1006 26.399 33.9271V33.2586C23.2623 34.5599 21.4034 38.4195 22.1435 41.9116C22.9156 45.5282 26.2412 48.1679 29.9232 48.0889C33.8124 48.0063 36.9035 45.3296 37.5709 41.47C38.1457 38.1556 36.1671 34.3502 33.245 33.2771ZM28.9894 39.3817V32.4654L27.9705 32.6492V39.3817H28.9894ZM30.6386 39.3619H31.6821V32.6344L30.6386 32.4827V39.3619ZM29.8208 44.7486L31.5292 40.8767C30.8396 41.0728 30.324 41.3318 29.8023 41.3343C29.2805 41.3368 28.7896 41.0802 28.1124 40.889L29.8208 44.7486Z" fill="#853232"/>
    <path d="M27.2578 4.58203L27.8918 5.71932C28.6455 7.07617 29.8124 7.74472 31.3543 7.75829C32.7111 7.76939 34.0556 7.75829 35.4557 7.75829V9.26069C35.3926 9.29617 35.3237 9.31999 35.2521 9.331C33.8385 9.331 32.425 9.35814 31.0138 9.32114C29.6311 9.28537 28.4346 8.73276 27.3935 7.74596C26.6374 9.05717 25.505 9.5259 24.0322 9.33964V7.79036C24.253 7.77926 24.4331 7.75829 24.612 7.76323C25.2781 7.7805 25.7419 7.48199 26.0428 6.89978C26.424 6.15474 26.8162 5.42081 27.2578 4.58203Z" fill="#853232"/>
  </g>
  <defs>
    <clipPath id="clip0_2773_24689">
      <rect width="59.0168" height="57.4157" fill="white" transform="translate(0.186523 0.21875)"/>
    </clipPath>
  </defs>
</svg>