<svg xmlns="http://www.w3.org/2000/svg" width="51" height="51" viewBox="0 0 51 51" fill="none">
  <g clip-path="url(#clip0_2773_24742)">
    <path d="M16.0751 15.6047L12.9201 18.3673C11.59 19.5365 10.2506 20.7096 8.90854 21.8722C8.69838 22.053 8.61858 22.1927 8.73297 22.492C9.06755 23.3305 9.1378 24.2513 8.9343 25.131C8.7308 26.0106 8.26328 26.807 7.5944 27.4134C6.93744 28.0196 6.11477 28.4165 5.23134 28.5533C4.34791 28.6901 3.44375 28.5607 2.63418 28.1815C1.82461 27.8023 1.14633 27.1906 0.685847 26.4244C0.225367 25.6581 0.00355894 24.7721 0.0487143 23.8793C0.181725 20.6591 3.69586 18.6094 6.56623 20.1018C6.95728 20.3053 7.15812 20.2348 7.45341 19.9781C9.66581 18.0219 11.888 16.0764 14.1199 14.1416C14.3859 13.9062 14.4697 13.7426 14.342 13.3621C13.7315 11.5665 14.076 9.92914 15.442 8.61101C16.808 7.29288 18.4919 6.95237 20.269 7.69191C22.022 8.41947 22.9478 9.80145 23.0369 11.7048C23.0529 12.0413 23.1433 12.1903 23.4665 12.2981C24.8791 12.7716 26.285 13.269 27.6856 13.7771C27.9809 13.8835 28.1419 13.8343 28.3507 13.5896C29.7646 11.9043 32.0324 11.4827 33.973 12.5428C34.2391 12.6851 34.392 12.6865 34.6195 12.4909C36.6297 10.7565 38.6483 9.03265 40.6754 7.31948C40.9614 7.07873 40.8616 6.88985 40.7738 6.6358C40.4838 5.79934 40.4469 4.89593 40.6677 4.03859C40.8885 3.18126 41.3573 2.40807 42.0153 1.81579C42.6733 1.22351 43.4914 0.838424 44.3671 0.708724C45.2429 0.579024 46.1374 0.710467 46.9389 1.08661C47.7397 1.46471 48.4118 2.06961 48.872 2.82625C49.3321 3.58289 49.56 4.45798 49.5273 5.34294C49.4102 8.62165 45.8642 10.6767 42.9486 9.15502C42.8036 9.07921 42.6613 8.99674 42.4937 8.90496L37.9913 12.749C37.3847 13.2664 36.7942 13.7944 36.1704 14.2959C35.9416 14.4821 35.9043 14.6337 36.0054 14.9197C36.2164 15.5038 36.3041 16.1252 36.2629 16.7449C36.2217 17.3645 36.0526 17.9689 35.7661 18.5199C35.4797 19.0709 35.0821 19.5565 34.5986 19.9462C34.1151 20.3359 33.556 20.6211 32.9568 20.784C32.3575 20.9468 31.731 20.9836 31.1167 20.8922C30.5025 20.8008 29.9138 20.5831 29.388 20.2528C28.8621 19.9225 28.4103 19.4868 28.0613 18.9732C27.7122 18.4596 27.4733 17.8792 27.3598 17.2687C27.3354 17.189 27.325 17.1058 27.3292 17.0226C27.4728 16.2578 27.0113 16.029 26.3848 15.8335C25.1212 15.4344 23.8802 14.9702 22.6312 14.5273C22.4211 14.4528 22.2681 14.4063 22.0752 14.6271C20.4312 16.5038 18.3815 16.8444 16.0751 15.6047ZM20.6653 11.8472C20.6648 11.4324 20.5416 11.0271 20.3113 10.6822C20.081 10.3373 19.7539 10.0682 19.3711 9.90876C18.9882 9.74929 18.5668 9.70657 18.1598 9.78598C17.7527 9.8654 17.3782 10.0634 17.0834 10.3551C16.7886 10.6468 16.5866 11.0191 16.5029 11.4253C16.4191 11.8314 16.4573 12.2533 16.6127 12.6378C16.7681 13.0223 17.0337 13.3523 17.3761 13.5863C17.7185 13.8202 18.1225 13.9477 18.5372 13.9527C18.8152 13.9545 19.0909 13.9014 19.3484 13.7964C19.6059 13.6915 19.8402 13.5369 20.0379 13.3413C20.2356 13.1457 20.3928 12.9131 20.5004 12.6567C20.6081 12.4003 20.6641 12.1252 20.6653 11.8472ZM47.1344 5.15141C47.131 4.7349 47.0044 4.3287 46.7707 3.98397C46.5369 3.63923 46.2063 3.37137 45.8206 3.21409C45.435 3.05682 45.0114 3.01716 44.6032 3.10012C44.195 3.18308 43.8205 3.38495 43.5268 3.68031C43.2331 3.97566 43.0333 4.35131 42.9527 4.75995C42.872 5.16859 42.9141 5.59196 43.0735 5.97676C43.233 6.36156 43.5027 6.69059 43.8487 6.92241C44.1948 7.15424 44.6017 7.27851 45.0182 7.27957C45.5812 7.27608 46.1201 7.05061 46.5178 6.65214C46.9155 6.25368 47.1399 5.71439 47.1424 5.15141H47.1344ZM6.65268 24.1107C6.62796 23.5723 6.398 23.0639 6.01004 22.6898C5.62208 22.3157 5.10558 22.1044 4.56667 22.0993C4.02776 22.0942 3.50735 22.2957 3.11237 22.6623C2.71739 23.029 2.47783 23.533 2.4429 24.0708C2.43381 24.3517 2.48097 24.6316 2.58161 24.8939C2.68224 25.1563 2.83432 25.396 3.0289 25.5987C3.22348 25.8015 3.45664 25.9633 3.71467 26.0747C3.97269 26.186 4.25037 26.2447 4.53139 26.2471C4.8124 26.2496 5.09108 26.1959 5.35103 26.0891C5.61098 25.9823 5.84696 25.8247 6.0451 25.6254C6.24323 25.4261 6.39952 25.1892 6.50478 24.9286C6.61003 24.668 6.66213 24.3891 6.658 24.1081L6.65268 24.1107ZM31.777 18.5722C32.0532 18.5731 32.3268 18.5197 32.5823 18.4149C32.8378 18.3101 33.0702 18.156 33.2661 17.9614C33.4621 17.7668 33.6178 17.5355 33.7244 17.2808C33.8309 17.026 33.8863 16.7527 33.8872 16.4766C33.8882 16.2004 33.8348 15.9268 33.73 15.6713C33.6252 15.4158 33.4711 15.1834 33.2765 14.9875C33.0819 14.7915 32.8506 14.6358 32.5958 14.5292C32.3411 14.4227 32.0678 14.3673 31.7917 14.3664C31.2339 14.3644 30.6983 14.5841 30.3025 14.9771C29.9068 15.3701 29.6834 15.9042 29.6814 16.462C29.6795 17.0197 29.8992 17.5553 30.2922 17.9511C30.6852 18.3468 31.2193 18.5702 31.777 18.5722Z" fill="#853232"/>
    <path d="M50.2341 31.7118V48.1466C50.2341 49.2692 49.835 49.6735 48.7071 49.6749C46.2508 49.6749 43.7946 49.6749 41.3383 49.6749C40.2197 49.6749 39.8193 49.2692 39.8193 48.1346C39.8193 37.2144 39.8193 26.2938 39.8193 15.3728C39.8193 14.2223 40.2343 13.8086 41.3756 13.8086H48.6911C49.8031 13.8086 50.2287 14.2316 50.2301 15.3356L50.2341 31.7118ZM42.2415 16.2108V47.2421H47.8066V16.2108H42.2415Z" fill="#853232"/>
    <path d="M23.7629 35.9954C23.7629 40.2597 23.7629 44.5231 23.7629 48.7856C23.7629 49.8976 23.3493 50.3099 22.2267 50.3099C19.789 50.3099 17.3505 50.3099 14.9111 50.3099C13.7832 50.3099 13.3695 49.9029 13.3682 48.7923C13.3682 40.2326 13.3682 31.6725 13.3682 23.112C13.3682 22.0346 13.7672 21.6302 14.8313 21.6289C17.3203 21.6289 19.8085 21.6289 22.2958 21.6289C23.3599 21.6289 23.7589 22.0279 23.7589 23.1053C23.7625 27.4016 23.7638 31.6982 23.7629 35.9954ZM21.3408 47.8971V24.0484H15.8009V47.8971H21.3408Z" fill="#853232"/>
    <path d="M36.997 38.004C36.997 41.5066 36.997 45.0092 36.997 48.5119C36.997 49.5653 36.5794 49.9883 35.518 49.9909C33.028 49.9962 30.5385 49.9962 28.0494 49.9909C27.0213 49.9909 26.5996 49.564 26.5996 48.5345C26.5996 41.5133 26.5996 34.4921 26.5996 27.4709C26.5996 26.4002 26.9986 26.0078 28.08 26.0078C30.5691 26.0078 33.0582 26.0078 35.5472 26.0078C36.5847 26.0078 36.997 26.4228 36.9984 27.4536C36.9993 30.9687 36.9988 34.4855 36.997 38.004ZM29.031 28.418V47.5715H34.5776V28.418H29.031Z" fill="#853232"/>
    <path d="M0.13583 42.5208C0.13583 40.3146 0.13583 38.1084 0.13583 35.9022C0.13583 34.9113 0.565453 34.4896 1.56569 34.4883C4.0858 34.4883 6.60679 34.4883 9.12867 34.4883C10.0983 34.4883 10.5293 34.9099 10.5293 35.8782C10.5293 40.3243 10.5293 44.77 10.5293 49.2152C10.5293 50.1662 10.0744 50.6171 9.12468 50.6185C6.60457 50.6238 4.08358 50.6238 1.5617 50.6185C0.581415 50.6185 0.13849 50.1702 0.13716 49.1886C0.1345 46.9664 0.134056 44.7438 0.13583 42.5208ZM8.10715 48.203V36.9051H2.55928V48.203H8.10715Z" fill="#853232"/>
  </g>
  <defs>
    <clipPath id="clip0_2773_24742">
      <rect width="50.1848" height="49.9614" fill="white" transform="translate(0.0478516 0.660156)"/>
    </clipPath>
  </defs>
</svg>