<svg xmlns="http://www.w3.org/2000/svg" width="34" height="48" viewBox="0 0 34 48" fill="none">
  <g clip-path="url(#clip0_2773_24769)">
    <path d="M17.2829 1.99274V0.164563C19.2644 -0.419394 21.0092 0.759421 21.3354 2.90216C21.4797 3.80379 21.5836 4.70853 21.7236 5.73629C22.4856 5.13209 23.1495 4.60575 23.8119 4.07786C25.2724 2.91461 26.8166 3.01739 28.1213 4.36906C28.6004 4.86581 29.0824 5.361 29.5443 5.87644C30.592 7.04436 30.7075 8.62649 29.8228 9.93767C29.2946 10.7163 28.7216 11.4715 28.0823 12.3591C28.6004 12.451 29.0218 12.5336 29.4461 12.6005C29.9397 12.6768 30.4362 12.7298 30.9283 12.8092C31.6308 12.901 32.2789 13.2636 32.7533 13.8301C33.2277 14.3967 33.4965 15.1291 33.5101 15.8925C33.5405 16.6353 33.5332 17.3781 33.5188 18.1209C33.4842 19.8992 32.4263 21.1621 30.7941 21.391L28.0708 21.7772L29.6482 23.99C30.7652 25.5472 30.6584 27.1403 29.3595 28.5184C28.8847 29.0198 28.4171 29.5306 27.9236 30.0102C26.7878 31.1112 25.3258 31.2233 24.0616 30.289C23.3039 29.7284 22.5765 29.1195 21.7308 28.4499C21.6183 29.2768 21.5086 29.9729 21.4306 30.6736C21.142 33.3209 19.8359 34.425 17.3002 34.0995C17.2829 33.8908 17.254 33.6697 17.2512 33.447C17.2324 32.2682 17.2338 32.2651 18.2946 32.2012C18.9873 32.1576 19.3842 31.7808 19.4794 31.0302C19.6093 29.99 19.7681 28.9529 19.8835 27.9158C20.0654 26.2932 21.3368 25.6734 22.5462 26.6357C23.3486 27.2726 24.1424 27.9236 24.9506 28.5527C25.7083 29.1429 26.1427 29.0993 26.8339 28.397C27.2486 27.9744 27.658 27.5467 28.0621 27.1138C28.6596 26.4691 28.7014 25.9568 28.1819 25.2202C27.5642 24.3435 26.9133 23.4948 26.2928 22.6197C25.4658 21.4518 25.9969 20.1016 27.3463 19.9132C28.4056 19.7575 29.4649 19.6236 30.5213 19.4601C31.2934 19.3402 31.6023 18.9695 31.6239 18.1395C31.6412 17.4217 31.634 16.7038 31.6239 15.9875C31.6124 15.3007 31.279 14.8803 30.6497 14.7822C29.5933 14.6171 28.5355 14.4583 27.4747 14.3321C26.8065 14.2527 26.313 13.9787 26.0315 13.2826C25.7501 12.5865 25.9507 12.0088 26.3765 11.4528C26.997 10.6447 27.5945 9.81621 28.1877 8.98466C28.6986 8.26833 28.6769 7.79805 28.1054 7.15648C27.6609 6.65973 27.2005 6.17855 26.7315 5.70515C26.1672 5.13521 25.6404 5.10874 25.0069 5.61172C24.1843 6.26419 23.3616 6.91667 22.5534 7.5925C22.018 8.04409 21.4783 8.16711 20.8332 7.86969C20.1881 7.57226 19.9528 7.01944 19.8821 6.30312C19.784 5.31117 19.6368 4.32545 19.4982 3.34441C19.3539 2.32754 19.0465 2.04257 18.0868 2.02388C17.8501 1.98962 17.612 1.99274 17.2829 1.99274Z" fill="#853232"/>
    <path d="M14.042 32.6387V34.1103H7.31528C7.26043 33.341 7.23157 32.5795 7.14931 31.8243C6.88232 29.5243 5.71333 27.6712 4.60929 25.7885C3.77224 24.3621 2.84138 22.9886 2.10536 21.4968C-2.39307 12.426 3.25125 1.14704 12.7503 0.16288L12.8947 0.145751C14.1935 0.0071585 14.2296 0.0507606 14.0247 1.49897C13.2684 1.61265 12.4934 1.68896 11.7329 1.84935C3.24981 3.64327 -0.825763 14.3336 4.01037 22.0574C5.05957 23.733 6.0496 25.4537 7.04107 27.1682C7.88123 28.6041 8.40233 30.2301 8.56364 31.9193C8.62425 32.5577 8.85227 32.6574 9.36172 32.648C10.9045 32.6216 12.4444 32.6387 14.042 32.6387Z" fill="#853232"/>
    <path d="M15.5285 37.9789C13.3637 37.9789 11.2134 37.9633 9.05726 37.9883C8.51029 37.9883 8.29092 37.8185 8.30535 37.2097C8.35442 35.0794 8.07444 35.4313 9.95925 35.4235C13.9425 35.4064 17.9242 35.4235 21.9074 35.4235C22.8657 35.4235 22.8686 35.4235 22.8671 36.4248C22.8671 38.1767 23.0374 37.982 21.4326 37.9898C19.4641 37.982 17.497 37.9789 15.5285 37.9789Z" fill="#853232"/>
    <path d="M15.5527 41.6858C13.388 41.6858 11.2376 41.6655 9.08003 41.6967C8.48977 41.706 8.28772 41.4989 8.30359 40.8635C8.35411 38.8298 8.07413 39.1241 9.93296 39.1179C13.9407 39.1054 17.9484 39.1304 21.9547 39.0977C22.6662 39.0977 22.9116 39.3032 22.8827 40.0927C22.8192 41.857 23.0819 41.6811 21.3861 41.6842C19.4378 41.6889 17.4967 41.6858 15.5527 41.6858Z" fill="#853232"/>
    <path d="M21.6031 42.7305C20.0748 44.8483 18.4598 46.759 15.8794 46.991C14.5354 47.0851 13.209 46.6197 12.1733 45.6907C11.2237 44.8654 10.4415 43.8143 9.46875 42.732L21.6031 42.7305Z" fill="#853232"/>
    <path d="M15.6064 23.7279V21.9667C18.7382 21.0806 20.1842 19.486 20.1236 17.0272C20.063 14.5683 18.5953 13.0064 15.6238 12.2932V10.5273C17.8318 10.6177 19.6113 11.5395 20.8395 13.4861C22.1643 15.5836 22.3101 17.8587 21.2017 20.1058C20.0471 22.4416 18.1392 23.5582 15.6064 23.7279Z" fill="#853232"/>
  </g>
  <defs>
    <clipPath id="clip0_2773_24769">
      <rect width="33" height="47" fill="white" transform="translate(0.532227 0.0078125)"/>
    </clipPath>
  </defs>
</svg>