<svg xmlns="http://www.w3.org/2000/svg" width="54" height="49" viewBox="0 0 54 49" fill="none">
  <g clip-path="url(#clip0_2774_24812)">
    <path d="M51.2534 44.0626C50.8317 42.698 50.4663 41.5187 50.1789 40.3448C50.1231 40.0998 50.114 39.8464 50.152 39.598C51.4868 37.8563 52.4646 35.8681 53.0293 33.7477C53.5939 31.6272 53.7344 29.4161 53.4427 27.2412C52.8222 22.6342 50.2702 18.5108 46.2677 15.6338C43.0254 13.3022 39.681 12.2115 36.0599 12.2948H35.853C35.2374 10.7676 34.4061 9.33644 33.3843 8.04513C28.0548 1.26768 18.4971 -0.959239 10.6639 2.75587C5.45792 5.22186 1.81803 9.64614 0.676363 14.8924C0.176512 17.2399 0.190434 19.6677 0.717174 22.0093C1.24391 24.3509 2.271 26.5508 3.72796 28.4581C3.78089 28.7132 3.78089 28.9765 3.72796 29.2317C3.44322 30.4137 3.0752 31.5956 2.65346 32.9629C2.47079 33.5539 2.27738 34.1771 2.07591 34.8433L1.32107 37.3577L3.62051 36.5518C4.29745 36.31 4.93678 36.0924 5.54119 35.8829C6.91119 35.4128 8.09315 35.0072 9.28585 34.4995C10.2126 34.1073 10.9782 34.0992 12.0285 34.478C13.9865 35.1999 16.0443 35.6149 18.129 35.7083L18.2929 36.036C18.4326 36.3047 18.5615 36.5545 18.6609 36.7801C18.8839 37.2395 19.0773 37.637 19.311 38.0292C22.6366 43.6032 28.8365 46.8133 35.2916 46.8133C37.7033 46.8138 40.0939 46.3637 42.3404 45.4863C42.9183 45.2996 43.5391 45.2921 44.1214 45.4648C45.4269 45.8463 46.719 46.3298 48.2152 46.8885C48.8653 47.133 49.5584 47.3909 50.2863 47.6568L52.5992 48.4949L51.8363 45.9618C51.6295 45.2929 51.4361 44.6536 51.2534 44.0626ZM21.3606 36.541L21.3069 36.4497C26.6526 35.5498 30.6309 33.3766 33.7255 29.6938C37.1263 25.6482 38.3916 20.8291 37.5696 15.0106C40.1349 15.2228 42.5526 16.1657 44.9246 17.8688C48.3334 20.3187 50.4986 23.7786 51.0224 27.6334C51.2597 29.4493 51.1348 31.2942 50.6548 33.0615C50.1748 34.8288 49.3493 36.4835 48.226 37.9298C47.5249 38.8485 47.635 40.3099 47.8123 41.0298C48.0809 42.0774 48.3737 43.0955 48.7202 44.2211C47.2992 43.6838 46.0528 43.2299 44.7499 42.8511C44.2542 42.7067 43.7405 42.6335 43.2241 42.6335C42.6399 42.6285 42.0598 42.7314 41.513 42.937C33.9619 45.9 25.2879 43.1439 21.3606 36.5518V36.541ZM5.1678 33.1859C5.52507 32.0335 5.83668 30.9939 6.09456 29.9167C6.31752 28.9873 6.27454 27.6092 5.64327 26.7845C3.12087 23.4643 2.20216 19.4618 3.06177 15.5156C4.02077 11.0994 7.14758 7.3467 11.6363 5.21917C14.9838 3.64374 18.7636 3.23909 22.3687 4.07021C25.9737 4.90132 29.1949 6.91998 31.5147 9.80195C32.7436 11.3256 33.6325 13.0945 34.1218 14.9899C34.611 16.8852 34.6893 18.8633 34.3514 20.7915C33.6181 24.9337 30.9936 28.5601 27.1495 30.7307C22.5829 33.3095 17.761 33.707 12.7834 31.9099C11.1958 31.3377 9.82847 31.3727 8.38326 31.9798C7.38129 32.4176 6.34439 32.783 5.1678 33.1859Z" fill="#853232"/>
    <path d="M11.3193 21.4453C12.6708 21.4453 13.7664 20.2438 13.7664 18.7617C13.7664 17.2796 12.6708 16.0781 11.3193 16.0781C9.96771 16.0781 8.87207 17.2796 8.87207 18.7617C8.87207 20.2438 9.96771 21.4453 11.3193 21.4453Z" fill="#853232"/>
    <path d="M18.3417 21.4453C19.6933 21.4453 20.7889 20.2438 20.7889 18.7617C20.7889 17.2796 19.6933 16.0781 18.3417 16.0781C16.9902 16.0781 15.8945 17.2796 15.8945 18.7617C15.8945 20.2438 16.9902 21.4453 18.3417 21.4453Z" fill="#853232"/>
    <path d="M25.2343 21.4453C26.5858 21.4453 27.6815 20.2438 27.6815 18.7617C27.6815 17.2796 26.5858 16.0781 25.2343 16.0781C23.8828 16.0781 22.7871 17.2796 22.7871 18.7617C22.7871 20.2438 23.8828 21.4453 25.2343 21.4453Z" fill="#853232"/>
  </g>
  <defs>
    <clipPath id="clip0_2774_24812">
      <rect width="53.2902" height="47.5174" fill="white" transform="translate(0.305664 0.964844)"/>
    </clipPath>
  </defs>
</svg>