<svg xmlns="http://www.w3.org/2000/svg" width="56" height="56" viewBox="0 0 56 56" fill="none">
  <g clip-path="url(#clip0_2774_24803)">
    <path d="M53.4406 29.7744C53.207 33.1752 52.9799 36.5771 52.7331 39.977C52.6853 40.6932 52.5951 41.406 52.463 42.1116C52.2687 43.1218 51.6145 43.7573 50.6135 43.9162C49.3659 44.1153 48.1042 44.2293 46.8454 44.3545C45.4716 44.491 44.094 44.591 42.7202 44.7218C41.6155 44.8265 41.1539 45.3218 41.1585 46.4367C41.1679 48.5367 41.2071 50.6376 41.223 52.7385C41.2284 53.1261 41.2009 53.5135 41.1408 53.8964C40.9838 54.8469 40.3754 55.4263 39.424 55.5787C38.4726 55.731 37.6296 55.3534 37.2558 54.4703C37.0248 53.9464 36.8979 53.3827 36.882 52.8105C36.8577 49.5881 36.8655 46.3654 36.9053 43.1424C36.9278 41.4732 37.6165 40.7462 39.2875 40.5462C40.2857 40.4265 41.2931 40.3705 42.2987 40.3265C43.6492 40.2677 44.2174 39.8163 44.3594 38.4574C44.4912 37.1995 44.5071 35.9341 44.6033 34.6687C44.7903 32.1734 44.8921 29.665 45.2304 27.1921C45.6809 23.8959 49.5986 22.4193 52.1117 24.5146C53.1172 25.3557 53.4397 26.4959 53.4789 27.7454C53.4995 28.4211 53.4789 29.0968 53.4789 29.7725L53.4406 29.7744Z" fill="#853232"/>
    <path d="M18.4965 47.9679C18.4965 49.5791 18.5021 51.1903 18.4965 52.8005C18.4965 53.4706 18.3732 54.1182 17.9891 54.6883C17.4769 55.4491 16.7208 55.7435 15.8134 55.5472C14.9059 55.3509 14.3414 54.7743 14.2059 53.8603C14.15 53.4763 14.1244 53.0885 14.1293 52.7005C14.1452 50.8594 14.176 49.0183 14.2013 47.1772C14.2013 46.9184 14.2115 46.6595 14.2013 46.4006C14.1555 45.3586 13.6078 44.7932 12.5676 44.7034L5.55839 44.1016C3.82197 43.9492 2.89862 43.0848 2.7818 41.3483C2.47526 36.7858 2.22106 32.2195 1.922 27.6569C1.75191 25.0355 3.80702 23.6757 5.73129 23.6196C8.292 23.5467 10.0256 25.1149 10.2172 27.7177C10.4826 31.2887 10.7265 34.8606 10.9835 38.4316C11.077 39.754 11.5807 40.2194 12.9144 40.3007C14.019 40.3652 15.1246 40.4399 16.2237 40.5642C17.6152 40.7222 18.3778 41.4904 18.4246 42.8801C18.4816 44.5754 18.4386 46.2735 18.4386 47.9707L18.4965 47.9679Z" fill="#853232"/>
    <path d="M27.6066 36.6111C29.4757 36.6111 31.3449 36.6111 33.214 36.6111C34.2355 36.6111 35.2579 36.6017 36.2785 36.627C37.2261 36.6503 37.6186 37.0008 37.6738 37.8036C37.713 38.3699 37.4644 38.7494 36.9177 38.9036C36.6289 38.9849 36.3252 39.0157 36.0289 39.0727C35.3887 39.197 35.0822 39.5213 35.0187 40.1755C34.9906 40.4755 34.9972 40.7792 34.9972 41.0811C34.9972 45.124 34.994 49.167 34.9878 53.2099C34.9878 53.7267 34.9682 54.2463 34.9205 54.7613C34.8654 55.3697 34.5075 55.6594 33.8701 55.6631C33.2561 55.6631 32.9178 55.3828 32.8421 54.7912C32.8101 54.5198 32.7945 54.2467 32.7953 53.9734C32.7888 51.3118 32.7897 48.6464 32.7822 45.9885C32.7911 45.5861 32.7717 45.1836 32.7243 44.7838C32.6402 44.1969 32.3505 43.9278 31.7617 43.8493C31.3899 43.7991 31.0154 43.7722 30.6402 43.7689C28.6552 43.7614 26.6696 43.7614 24.6833 43.7689C24.295 43.7711 23.9073 43.7986 23.5226 43.8511C22.9889 43.9259 22.7357 44.1745 22.6469 44.711C22.5943 45.037 22.5677 45.3667 22.5674 45.6969C22.5553 48.2006 22.5609 50.7043 22.5403 53.2071C22.5307 53.7527 22.4807 54.2969 22.3908 54.8351C22.2973 55.4015 21.9104 55.6856 21.3628 55.6603C20.8151 55.6351 20.4703 55.322 20.4282 54.7258C20.3862 54.1295 20.374 53.5473 20.3731 52.9576C20.3687 49.0872 20.3665 45.2172 20.3665 41.3474C20.3728 40.9729 20.3559 40.5984 20.3161 40.226C20.2226 39.4867 19.7768 39.0699 19.0404 38.9961C18.9684 38.9886 18.8965 38.9877 18.8245 38.9802C18.0245 38.8914 17.6479 38.5129 17.6656 37.8148C17.6853 37.084 18.0834 36.6709 18.8806 36.6578C20.5918 36.6288 22.3048 36.6344 24.0207 36.6298C25.2141 36.6298 26.4085 36.6298 27.6029 36.6298L27.6066 36.6111Z" fill="#853232"/>
    <path d="M23.4068 2.11174C21.2059 2.11174 19.004 2.0809 16.8031 2.12389C15.6116 2.14725 15.0546 2.72761 15.0461 3.90797C15.0275 6.56868 15.0405 9.235 15.0714 11.892C15.0826 12.92 15.3994 13.2648 16.4144 13.3873C17.0685 13.4667 17.734 13.448 18.3938 13.4499C19.4732 13.4499 19.8124 13.8153 19.6564 14.8704C19.6124 15.162 19.6984 15.3377 19.9489 15.4648C20.142 15.5614 20.3324 15.6626 20.5199 15.7685C21.0806 16.09 21.1115 16.2695 20.6405 16.6975C20.2152 17.0844 19.7722 17.4536 19.3274 17.819C18.7377 18.3022 18.1396 18.775 17.5405 19.2479C17.2452 19.4816 16.934 19.576 16.6059 19.3012C16.2779 19.0264 16.2844 18.7087 16.4471 18.3666C16.7863 17.6536 17.1433 16.948 17.4835 16.2349C17.9041 15.3545 17.6704 14.9265 16.7097 14.748C16.2153 14.6545 15.719 14.5723 15.2312 14.4499C14.3751 14.2349 13.9228 13.662 13.8518 12.7882C13.8172 12.3583 13.777 11.9275 13.7751 11.4976C13.7677 9.09512 13.7677 6.69204 13.7751 4.28834C13.78 3.88594 13.8068 3.4841 13.8555 3.08462C14.0069 1.72763 14.7078 1.01923 16.0602 0.851006C16.4168 0.803256 16.776 0.777352 17.1358 0.773438C21.266 0.773437 25.3958 0.77593 29.5254 0.780914C29.8272 0.780914 30.1291 0.81082 30.43 0.838857C31.8982 0.979042 32.7805 1.85286 32.8431 3.33134C32.9076 4.84067 32.9104 6.35186 32.9122 7.86305C32.9122 9.31537 32.8992 10.7696 32.8562 12.2219C32.8085 13.8013 32.1085 14.5583 30.5394 14.6583C29.3497 14.7359 28.1534 14.7153 26.96 14.7517C26.6155 14.7572 26.2718 14.7884 25.932 14.8452C25.2264 14.9714 25.0329 15.334 25.331 15.9882C25.8169 17.0402 26.5902 17.9334 27.5619 18.5648C29.2833 19.719 31.1515 20.1218 33.1907 19.6274C34.4991 19.3106 35.8075 19.1096 37.1636 19.3573C37.3813 19.3965 37.7355 19.3021 37.8449 19.1442C37.9542 18.9863 37.8991 18.6227 37.7776 18.4423C37.272 17.6881 37.3645 16.9723 37.7458 16.2059C38.6131 14.462 38.9477 12.6452 38.3673 10.7331C38.058 9.71443 37.5094 8.82753 36.8589 7.99109C36.604 7.68261 36.4039 7.33268 36.2673 6.95653C36.2103 6.77989 36.3711 6.46681 36.5253 6.30233C36.7309 6.08551 36.9813 6.22756 37.1692 6.41074C39.0019 8.20417 40.1103 10.3182 39.9065 12.9462C39.8355 13.8536 39.5682 14.7471 39.3869 15.6461C39.3075 16.0396 39.2 16.4284 39.1402 16.8246C39.0271 17.6227 39.2589 18.3311 39.7748 18.947C39.9692 19.1788 40.1804 19.3965 40.3598 19.6395C40.5962 19.9591 40.6944 20.3087 40.4635 20.6816C40.2327 21.0545 39.872 21.1582 39.4551 21.0928C38.8309 20.9937 38.2103 20.8694 37.586 20.7909C35.958 20.589 34.3515 20.7348 32.7356 21.0096C29.6375 21.5367 27.0469 20.5096 25.1385 18.062C22.9638 15.2732 22.4582 12.1742 24.1105 8.93594C25.3853 6.44532 27.4609 4.93693 30.2441 4.45002C30.3712 4.42759 30.4992 4.40516 30.6254 4.37712C31.1665 4.2575 31.4244 3.99862 31.4665 3.53601C31.5216 2.95285 31.302 2.46967 30.8057 2.30799C30.4094 2.18451 29.9966 2.12149 29.5815 2.12108C27.5254 2.10332 25.4694 2.11267 23.4077 2.11267L23.4068 2.11174ZM31.5646 9.34341H31.5721C31.5721 8.52473 31.6291 7.70044 31.5581 6.8883C31.4702 5.8743 31.0188 5.58832 30.0347 5.82103C27.0852 6.51821 25.4152 8.51819 24.5526 11.2948C24.2068 12.406 24.603 13.0471 25.7451 13.2845C27.1815 13.5826 28.6375 13.5069 30.0852 13.3676C31.0908 13.2742 31.487 12.8611 31.5543 11.8424C31.6076 11.0125 31.5646 10.177 31.5646 9.34341Z" fill="#853232"/>
    <path d="M43.6992 16.3347C43.6927 13.1497 46.1413 10.6797 49.3122 10.6797C52.4636 10.6797 55.0963 13.2329 55.1168 16.3189C55.1383 19.3898 52.4832 22.0197 49.3655 22.0141C46.1964 22.0076 43.7048 19.5123 43.6992 16.3347Z" fill="#853232"/>
    <path d="M11.662 16.3893C11.5928 19.6154 9.06668 22.0771 5.90037 22.0042C2.78546 21.9322 0.187368 19.3136 0.248114 16.3033C0.312599 13.1109 2.94714 10.6146 6.18167 10.681C6.9173 10.6927 7.64332 10.8501 8.31781 11.1439C8.99231 11.4378 9.60191 11.8623 10.1114 12.393C10.621 12.9238 11.0203 13.5502 11.2864 14.2361C11.5526 14.922 11.6802 15.6538 11.662 16.3893Z" fill="#853232"/>
  </g>
  <defs>
    <clipPath id="clip0_2774_24803">
      <rect width="54.8702" height="54.8908" fill="white" transform="translate(0.248047 0.777344)"/>
    </clipPath>
  </defs>
</svg>