<svg width="45" height="44" viewBox="0 0 45 44" fill="none" xmlns="http://www.w3.org/2000/svg">
<circle cx="22.5359" cy="21.8435" r="21.0194" stroke="#31795A" stroke-width="1.07792"/>
<path d="M22.6301 16.4609C18.2097 16.4609 14.4347 19.2104 12.9053 23.0915C14.4347 26.9726 18.2097 29.7221 22.6301 29.7221C27.0505 29.7221 30.8255 26.9726 32.355 23.0915C30.8255 19.2104 27.0505 16.4609 22.6301 16.4609ZM22.6301 27.9539C19.2795 27.9539 16.2913 26.0709 14.8326 23.0915C16.2913 20.1122 19.2795 18.2291 22.6301 18.2291C25.9808 18.2291 28.969 20.1122 30.4277 23.0915C28.969 26.0709 25.9808 27.9539 22.6301 27.9539ZM22.6301 19.1132C20.4376 19.1132 18.6518 20.899 18.6518 23.0915C18.6518 25.284 20.4376 27.0699 22.6301 27.0699C24.8226 27.0699 26.6085 25.284 26.6085 23.0915C26.6085 20.899 24.8226 19.1132 22.6301 19.1132ZM22.6301 25.3017C21.4101 25.3017 20.4199 24.3115 20.4199 23.0915C20.4199 21.8715 21.4101 20.8813 22.6301 20.8813C23.8502 20.8813 24.8403 21.8715 24.8403 23.0915C24.8403 24.3115 23.8502 25.3017 22.6301 25.3017Z" fill="#31795A"/>
</svg>
