<svg xmlns="http://www.w3.org/2000/svg" width="70" height="58" viewBox="0 0 70 58" fill="none">
  <g clip-path="url(#clip0_2773_24661)">
    <path d="M46.9077 34.845V35.0785C46.9077 39.9238 46.9077 44.7685 46.9077 49.6128C46.898 49.6831 46.9139 49.7546 46.9525 49.8142C46.9912 49.8737 47.05 49.9174 47.1182 49.9371C47.6827 50.1984 48.1504 50.6312 48.4544 51.1739C48.958 51.9965 49.4466 52.8282 49.9204 53.6691C50.2216 54.2038 50.1842 54.7689 49.942 55.3167C49.4706 56.3833 48.5712 57.2179 47.1211 57.1992C45.2111 57.1761 43.3012 57.1992 41.3912 57.1992C39.9786 57.1992 38.7072 56.0806 38.54 54.7112C38.49 54.3289 38.5691 53.9408 38.7649 53.6085C39.1671 52.9123 39.5692 52.2161 39.9772 51.5242C40.3851 50.8323 40.8694 50.1995 41.6536 49.8823C41.6744 49.8695 41.6921 49.8522 41.7055 49.8318C41.719 49.8114 41.7278 49.7883 41.7314 49.7641C41.7379 49.6773 41.7379 49.5901 41.7314 49.5032V34.8609C41.4705 34.8609 41.2269 34.809 40.9876 34.9589C40.7109 35.1319 40.4197 35.289 40.1228 35.436C40.062 35.4603 40.011 35.504 39.9776 35.5603C39.9442 35.6166 39.9304 35.6824 39.9383 35.7474C39.9383 38.6159 39.9383 41.4839 39.9383 44.3515C39.9383 45.2365 39.9383 46.1216 39.9383 47.0052C39.9492 47.1802 39.9058 47.3544 39.8139 47.5038C39.7221 47.6532 39.5863 47.7706 39.4251 47.8398C35.0354 50.0097 30.6432 52.182 26.2487 54.3566C25.4746 54.7386 24.6962 55.1163 23.9265 55.5098C23.7885 55.5856 23.6335 55.6254 23.476 55.6254C23.3186 55.6254 23.1636 55.5856 23.0256 55.5098C18.7156 53.3765 14.4052 51.2445 10.0942 49.1141C9.27116 48.7076 8.45385 48.2881 7.62357 47.9003C7.42278 47.8236 7.25236 47.6837 7.13797 47.5017C7.02358 47.3197 6.97141 47.1055 6.98933 46.8913C6.99942 43.1868 6.98933 39.4808 6.99942 35.7748C7.00622 35.7005 6.98922 35.6259 6.95087 35.5619C6.91252 35.4979 6.85481 35.4478 6.78608 35.4187C4.74065 34.2886 2.69954 33.147 0.654102 32.0169C0.318241 31.8338 0.0400391 31.6234 0.0400391 31.2024C0.0400391 30.7815 0.328331 30.574 0.658426 30.3895C8.10117 26.2573 15.542 22.1188 22.9809 17.9742C23.133 17.8803 23.3086 17.8317 23.4873 17.834C23.666 17.8363 23.8403 17.8894 23.9899 17.9871C25.9724 19.0951 27.9563 20.2003 29.9417 21.3025C29.9994 21.3342 30.0585 21.363 30.1565 21.412V11.9921C30.1565 9.75926 31.8257 8.08428 34.0556 8.0814C36.2856 8.07852 38.5444 8.0814 40.7902 8.0814H41.0482V3.07232C41.0404 2.67598 41.1126 2.28214 41.2605 1.91434C41.4084 1.54655 41.629 1.21237 41.909 0.931796C42.189 0.651218 42.5228 0.430006 42.8903 0.281392C43.2578 0.132779 43.6515 0.0598177 44.0479 0.0668732H55.4455C55.8408 0.0600785 56.2335 0.132764 56.6002 0.280617C56.9669 0.428469 57.3001 0.648476 57.5802 0.927581C57.8602 1.20669 58.0813 1.5392 58.2304 1.9054C58.3795 2.27159 58.4535 2.66401 58.4481 3.05935C58.4481 4.64496 58.4481 6.22191 58.4481 7.8032V8.07708H58.7075C60.9591 8.07708 63.2107 8.07708 65.4622 8.07708C66.3419 8.06407 67.1988 8.35672 67.8867 8.90509C68.5747 9.45345 69.0511 10.2235 69.2345 11.084C69.2945 11.3591 69.3245 11.6399 69.3239 11.9215C69.3239 18.2745 69.3239 24.627 69.3239 30.979C69.3303 31.4882 69.2347 31.9936 69.0427 32.4652C68.8507 32.9369 68.5663 33.3654 68.2061 33.7254C67.846 34.0854 67.4174 34.3697 66.9456 34.5615C66.4739 34.7533 65.9685 34.8487 65.4593 34.8421H46.9077V34.845ZM2.48188 31.2024C2.58278 31.2615 2.64476 31.299 2.70674 31.3336L8.39619 34.5048C13.3202 37.2436 18.2428 39.9824 23.164 42.7212C23.3658 42.8336 23.5128 42.8768 23.7406 42.7486C30.5635 38.9402 37.3926 35.1372 44.228 31.3394C44.2943 31.3033 44.3592 31.2615 44.4515 31.2068L44.2122 31.0727L37.3984 27.2831L23.6685 19.6434C23.6169 19.6035 23.5545 19.5802 23.4895 19.5763C23.4244 19.5725 23.3597 19.5883 23.3038 19.6217C16.9614 23.1562 10.6189 26.6868 4.27649 30.2136L2.48188 31.2024ZM62.242 9.66845V9.92215C62.242 12.462 62.242 15.0014 62.242 17.5403C62.242 17.815 62.2247 18.0894 62.1901 18.3619C61.9148 20.4174 60.1115 22.1198 58.0401 22.2337C57.0441 22.2884 56.0437 22.2567 55.0462 22.2654C54.9684 22.2654 54.8905 22.2654 54.7954 22.2755V22.5119C54.7954 23.1966 54.7954 23.8798 54.7954 24.5631C54.7954 25.1325 54.4812 25.4525 53.9175 25.4525H45.5729C45.0165 25.4525 44.6965 25.1339 44.6951 24.5876C44.6951 23.8914 44.6951 23.1937 44.6951 22.4975V22.2654H44.4443C43.6125 22.2654 42.7823 22.274 41.9505 22.2654C41.6223 22.265 41.2948 22.2356 40.9718 22.1775C39.9177 21.9789 38.967 21.416 38.286 20.5873C37.6051 19.7585 37.2373 18.7166 37.247 17.6441C37.247 15.0859 37.247 12.5264 37.247 9.96539V9.69151C37.2123 9.68387 37.1772 9.6781 37.1418 9.67422C36.0622 9.67422 34.9796 9.65115 33.9043 9.67422C33.3306 9.68626 32.7843 9.92217 32.3822 10.3316C31.98 10.741 31.754 11.2914 31.7522 11.8652C31.7522 15.2902 31.7522 18.7146 31.7522 22.1385C31.7468 22.19 31.7579 22.2418 31.7838 22.2866C31.8097 22.3314 31.8491 22.3669 31.8963 22.3879C36.7397 25.0786 41.5815 27.7694 46.4219 30.4601C46.5771 30.5337 46.7069 30.6518 46.7947 30.7994C46.8825 30.947 46.9243 31.1174 46.9149 31.2889C46.9149 31.7372 46.9149 32.187 46.9149 32.6353V33.2536H65.4449C66.7682 33.2536 67.7412 32.3023 67.7426 30.979C67.7484 24.6366 67.7484 18.2908 67.7426 11.9416C67.7426 10.6198 66.7667 9.66845 65.4435 9.66701C64.4585 9.66701 63.4735 9.66701 62.4885 9.66701L62.242 9.66845ZM54.7968 20.6582C54.8862 20.6582 54.9511 20.6682 55.0159 20.6682C55.901 20.6682 56.7846 20.6682 57.6697 20.6682C58.4599 20.6626 59.216 20.3457 59.7743 19.7864C60.3325 19.2271 60.6479 18.4703 60.6521 17.6801C60.6521 15.0855 60.6521 12.4908 60.6521 9.8962C60.6521 9.70449 60.593 9.66413 60.4142 9.66413C58.6258 9.67085 56.837 9.67374 55.0477 9.67277H39.1282H38.8471C38.8399 9.74485 38.8312 9.78953 38.8312 9.83566C38.8312 12.449 38.8182 15.061 38.8312 17.6743C38.8427 19.3781 40.1819 20.6668 41.8886 20.6668H44.4616C44.5322 20.6668 44.6057 20.6668 44.6835 20.6553C44.6835 19.874 44.6835 19.1172 44.6835 18.3619C44.6835 17.7853 44.9949 17.4797 45.5657 17.4797H53.9262C54.4711 17.4797 54.7911 17.7954 54.7911 18.3446C54.7911 18.9543 54.7911 19.5641 54.7911 20.1738C54.7968 20.3281 54.7968 20.4866 54.7968 20.6582ZM8.59511 36.435C8.59511 36.5128 8.58791 36.5532 8.58791 36.5921C8.58791 39.869 8.58791 43.1459 8.58791 46.4228C8.58456 46.4813 8.60111 46.5393 8.63488 46.5872C8.66864 46.6351 8.71763 46.6701 8.77386 46.6866C13.5979 49.0708 18.4225 51.4579 23.2476 53.8478C23.315 53.8871 23.3916 53.9077 23.4696 53.9077C23.5475 53.9077 23.6241 53.8871 23.6915 53.8478C25.3636 53.0146 27.0381 52.1853 28.715 51.3598C31.868 49.8021 35.0209 48.2448 38.1739 46.6881C38.2296 46.6704 38.2776 46.6344 38.3103 46.586C38.343 46.5377 38.3585 46.4796 38.3541 46.4214C38.3541 43.1541 38.3541 39.8906 38.3541 36.631C38.3541 36.5762 38.344 36.5214 38.3382 36.4494C38.2662 36.4854 38.2186 36.507 38.1725 36.533C37.4056 36.9582 36.6402 37.3892 35.8661 37.8087C35.8062 37.834 35.756 37.878 35.7231 37.934C35.6901 37.9901 35.6761 38.0553 35.6831 38.12C35.6831 39.8498 35.6744 41.5795 35.6946 43.3093C35.6946 43.8282 35.5043 44.1367 35.0402 44.3644C31.3366 46.1826 27.6368 48.0084 23.9409 49.842C23.7971 49.9207 23.6357 49.962 23.4717 49.962C23.3077 49.962 23.1464 49.9207 23.0025 49.842C19.2701 47.9911 15.5358 46.1451 11.7995 44.3039C11.6226 44.2307 11.4732 44.1038 11.3724 43.9411C11.2715 43.7784 11.2243 43.5882 11.2373 43.3972C11.246 41.6271 11.2373 39.8584 11.2373 38.0897C11.2434 38.0311 11.2304 37.9721 11.2003 37.9215C11.1701 37.8709 11.1245 37.8313 11.0701 37.8087C10.6982 37.6112 10.3321 37.3993 9.96306 37.1946L8.59511 36.435ZM56.8437 8.0641C56.8437 8.00068 56.8567 7.96176 56.8567 7.91996C56.8567 6.29975 56.8567 4.67811 56.8567 3.05791C56.8509 2.22907 56.257 1.65248 55.3922 1.65248H44.1055C43.2089 1.65248 42.6352 2.22907 42.6338 3.12421C42.6338 4.69829 42.6338 6.27237 42.6338 7.84644C42.6338 7.91707 42.6424 7.99059 42.6482 8.06122L56.8437 8.0641ZM12.8445 38.7975V39.0584C12.8445 40.2981 12.8445 41.5377 12.8445 42.7774C12.835 42.8599 12.8536 42.9432 12.8973 43.0138C12.941 43.0844 13.0072 43.1383 13.0853 43.1666C16.491 44.8444 19.8957 46.5261 23.2995 48.2117C23.3501 48.2408 23.4075 48.2561 23.466 48.2561C23.5244 48.2561 23.5818 48.2408 23.6324 48.2117C27.065 46.5108 30.4996 44.8132 33.936 43.119C33.9884 43.1003 34.0331 43.0646 34.0629 43.0176C34.0926 42.9706 34.1058 42.9149 34.1003 42.8595C34.1003 41.5622 34.1003 40.2736 34.1003 38.9806C34.1003 38.9301 34.0917 38.8797 34.0845 38.8033C33.9893 38.8537 33.9144 38.8926 33.8394 38.9344C30.5442 40.768 27.2486 42.6015 23.9524 44.4351C23.8102 44.5237 23.6459 44.5708 23.4782 44.5708C23.3105 44.5708 23.1462 44.5237 23.004 44.4351C20.072 42.8014 17.1411 41.1678 14.211 39.5341L12.8445 38.7975ZM45.3019 32.5762C45.2126 32.6208 45.1578 32.6482 45.0972 32.6799C44.5754 32.9682 44.058 33.2652 43.5318 33.5448C43.4628 33.5732 43.4049 33.6233 43.3669 33.6876C43.3289 33.7518 43.3129 33.8267 43.3214 33.9009C43.3271 39.3784 43.3271 44.8526 43.3214 50.3234C43.3214 50.4099 43.3214 50.4979 43.3214 50.5843C43.3088 50.7766 43.2248 50.9571 43.0858 51.0905C42.9468 51.2239 42.7629 51.3004 42.5704 51.3051C42.419 51.304 42.2694 51.3382 42.1335 51.405C41.9977 51.4718 41.8792 51.5694 41.7876 51.6899C41.6468 51.8599 41.5182 52.0395 41.4028 52.2276C40.9876 52.9238 40.5783 53.6244 40.1804 54.3293C40.1551 54.3814 40.1405 54.4382 40.1375 54.4962C40.1345 54.5541 40.1432 54.6121 40.1631 54.6666C40.4889 55.4233 40.9343 55.6093 41.5094 55.6064C43.3833 55.5963 45.2486 55.592 47.1167 55.6064C47.7798 55.6064 48.1805 55.2864 48.4515 54.7285C48.4904 54.6586 48.509 54.5793 48.5055 54.4994C48.5019 54.4195 48.4762 54.3421 48.4313 54.2759C48.0638 53.6604 47.7106 53.0348 47.3459 52.4193C47.1928 52.1696 47.0253 51.9289 46.8443 51.6986C46.7548 51.5766 46.6375 51.4776 46.5021 51.4099C46.3668 51.3423 46.2172 51.3078 46.0659 51.3094C45.8826 51.3065 45.7065 51.2377 45.5697 51.1157C45.4329 50.9937 45.3445 50.8266 45.3207 50.6449C45.3098 50.5584 45.3055 50.4711 45.3077 50.384C45.3077 44.5364 45.3077 38.6875 45.3077 32.8371L45.3019 32.5762ZM46.2922 19.0812V23.838H53.1867V19.0812H46.2922Z" fill="#853232"/>
  </g>
  <defs>
    <clipPath id="clip0_2773_24661">
      <rect width="69.2939" height="57.1338" fill="white" transform="translate(0.0361328 0.0742188)"/>
    </clipPath>
  </defs>
</svg>