<svg xmlns="http://www.w3.org/2000/svg" width="35" height="45" viewBox="0 0 35 45" fill="none">
  <g clip-path="url(#clip0_2773_24706)">
    <path d="M22.3762 0.289062C22.7306 0.557663 23.117 0.795271 23.4324 1.1006C27.007 4.55568 30.576 8.01573 34.1396 11.4808C34.3482 11.6714 34.5124 11.9032 34.6212 12.1606C34.73 12.4179 34.7809 12.6949 34.7705 12.973C34.7603 22.397 34.7575 31.8206 34.7622 41.2438C34.7622 43.1871 33.615 44.2937 31.6004 44.2937H3.96067C1.92842 44.2937 0.794139 43.1871 0.794139 41.2048C0.7902 28.6716 0.782323 16.1392 0.770508 3.60754C0.770508 2.10958 1.27975 0.776906 3.17731 0.289062H22.3762ZM3.6511 3.05886V41.5193H31.9065V14.0394H31.4031C28.8085 14.0394 26.2134 14.0394 23.618 14.0394C21.7984 14.0394 20.6086 12.8754 20.6074 11.1008C20.6074 8.58086 20.6074 6.06053 20.6074 3.53982V3.05886H3.6511ZM23.4561 11.2569H29.6686L23.4561 5.22489V11.2569Z" fill="#853232"/>
    <path d="M13.5308 8.57501C14.313 8.96299 15.0668 9.26373 15.7367 9.68614C16.5071 10.1625 16.6595 11.0119 16.1904 11.6593C15.706 12.3285 14.8494 12.4272 14.0849 11.9038C12.9235 11.1084 11.3509 11.0774 10.2225 11.8327C8.9736 12.6637 8.97714 14.0446 10.2331 14.8711C10.8676 15.2877 11.5813 15.3956 12.3327 15.4243C14.1298 15.4932 15.6635 16.1406 16.7954 17.5307C18.5145 19.6416 17.9238 22.5732 15.4697 24.0655C14.8908 24.4179 14.2303 24.6394 13.5308 24.9654C13.5308 25.3591 13.5308 25.8401 13.5308 26.3222C13.5213 27.1658 12.9318 27.7788 12.1295 27.7857C11.3272 27.7926 10.7116 27.1716 10.701 26.3049C10.701 25.8332 10.701 25.3614 10.701 25.009C9.90229 24.605 9.14492 24.2847 8.45608 23.8611C7.71526 23.402 7.57702 22.5537 8.04136 21.9167C8.51398 21.2612 9.37769 21.1499 10.1091 21.6492C11.2906 22.4596 12.8171 22.5067 13.9691 21.764C15.2688 20.9329 15.2606 19.4993 13.9585 18.6774C13.3677 18.3066 12.7203 18.1723 12.0267 18.1562C10.4836 18.1218 9.10475 17.6523 7.96929 16.6112C5.80116 14.622 5.96067 11.5078 8.36629 9.78486C9.04095 9.30276 9.84794 8.99398 10.6951 8.55205C10.6951 8.21573 10.6951 7.73477 10.6951 7.25267C10.7034 6.40669 11.2859 5.79717 12.094 5.78914C12.9022 5.7811 13.5119 6.3998 13.5249 7.26759C13.5308 7.73936 13.5308 8.20769 13.5308 8.57501Z" fill="#853232"/>
    <path d="M17.82 30.5406C21.0787 30.5406 24.3374 30.5406 27.5961 30.5406C28.2814 30.5406 28.7894 30.8723 29.0139 31.4428C29.2231 31.9835 29.0919 32.6251 28.585 32.9419C28.242 33.1517 27.8466 33.2668 27.4413 33.2748C21.4402 33.2955 15.4392 33.2886 9.43816 33.2886H8.06285C7.08808 33.2886 6.44414 32.7307 6.45123 31.9008C6.45832 31.0904 7.0999 30.5394 8.04513 30.5394C11.303 30.5387 14.5613 30.5391 17.82 30.5406Z" fill="#853232"/>
    <path d="M17.8201 36.0402C21.0787 36.0402 24.337 36.0402 27.5949 36.0402C28.3287 36.0402 28.8651 36.427 29.0494 37.0664C29.2148 37.6403 28.9691 38.2992 28.409 38.5747C28.1054 38.7137 27.7734 38.7839 27.4378 38.7802C21.4663 38.7932 15.4948 38.7962 9.52328 38.7893H8.10543C7.08931 38.7893 6.44182 38.2453 6.45127 37.4016C6.45836 36.5774 7.10348 36.0402 8.08889 36.0391L17.8201 36.0402Z" fill="#853232"/>
    <path d="M24.8526 19.5409C25.7671 19.5409 26.6816 19.5409 27.5949 19.5409C28.4598 19.5409 29.0931 20.1252 29.099 20.9034C29.1049 21.6817 28.4728 22.2809 27.6162 22.2809C25.773 22.2877 23.9302 22.2877 22.0877 22.2809C21.2264 22.2809 20.6014 21.6817 20.6085 20.8965C20.6155 20.1114 21.2441 19.5397 22.1114 19.5352C23.0247 19.5363 23.9392 19.5409 24.8526 19.5409Z" fill="#853232"/>
    <path d="M24.8301 27.7905C23.9298 27.7905 23.0306 27.7905 22.1315 27.7905C21.2323 27.7905 20.6014 27.2062 20.6085 26.405C20.6085 25.6233 21.2429 25.0448 22.1114 25.0425C23.9388 25.0379 25.7667 25.0379 27.5949 25.0425C28.4598 25.0425 29.0931 25.6268 29.099 26.4062C29.1049 27.1856 28.4645 27.7836 27.5713 27.7905C26.6579 27.7939 25.7434 27.7905 24.8301 27.7905Z" fill="#853232"/>
  </g>
  <defs>
    <clipPath id="clip0_2773_24706">
      <rect width="34" height="44" fill="white" transform="translate(0.770508 0.289062)"/>
    </clipPath>
  </defs>
</svg>