<svg xmlns="http://www.w3.org/2000/svg" width="44" height="61" viewBox="0 0 44 61" fill="none">
  <g clip-path="url(#clip0_2773_24755)">
    <path d="M43.155 43.7554C43.155 46.6636 43.1322 49.5732 43.1652 52.4827C43.1792 53.7302 42.7281 54.3533 41.436 54.4608C34.8168 55.0075 28.6498 57.0387 22.8449 60.3239C22.2248 60.6749 21.0763 60.6516 20.4474 60.298C14.6883 57.0594 8.57462 55.0191 2.01631 54.4686C0.522206 54.3481 0.156303 53.6291 0.165196 52.2625C0.204582 46.6727 0.176631 41.0817 0.184254 35.4906C0.184254 33.418 0.623846 33.0293 2.72525 33.2522C8.97102 33.8999 14.8826 35.7135 20.3852 38.7823C21.3546 39.3238 22.0279 39.2836 22.9732 38.7564C28.4363 35.7173 34.292 33.9323 40.4756 33.2586C42.7485 33.0099 43.1436 33.3713 43.1436 35.7109C43.1555 38.3924 43.1593 41.0739 43.155 43.7554ZM40.3879 36.3288C40.2062 36.2679 40.1033 36.1992 40.0067 36.1992C34.1624 36.6539 28.7793 38.6035 23.6872 41.4535C23.306 41.6685 23.0519 42.46 23.0418 42.9898C22.9833 46.2388 23.0126 49.489 23.0126 52.7392C23.0126 53.7755 23.1396 55.0062 21.7027 55.0411C20.2657 55.0761 20.3229 53.8662 20.3255 52.813C20.3255 49.6198 20.2645 46.4253 20.3598 43.2347C20.3941 42.0688 20.0256 41.4211 19.0029 41.0325C15.3438 39.6645 11.7204 38.1916 8.02195 36.948C6.43383 36.413 4.69579 36.343 2.96029 36.0516V51.6989C3.1966 51.7896 3.34144 51.8842 3.50406 51.901C9.64946 52.5319 15.3692 54.5152 20.8171 57.439C21.3177 57.7084 22.1778 57.5594 22.7686 57.3288C26.199 55.9907 29.5518 54.4103 33.0342 53.2314C35.3885 52.4347 37.9142 52.164 40.3892 51.6536L40.3879 36.3288Z" fill="#853232"/>
    <path d="M17.6612 23.9303C14.283 20.4664 12.3632 16.4868 11.808 11.8829C11.3113 7.75052 12.8524 4.46145 16.284 2.26571C19.8147 0.0103869 23.5258 0.0103869 27.054 2.26571C30.4844 4.46793 32.0204 7.75052 31.5224 11.8777C30.9646 16.4959 29.0398 20.4703 25.7022 23.8928C26.4899 24.135 27.1607 24.3487 27.8366 24.5469C30.8045 25.4021 33.5486 26.9199 35.87 28.9902C36.6005 29.638 36.9741 30.5111 36.1584 31.1497C35.7442 31.4749 34.5766 31.3919 34.151 31.0202C27.1074 24.8371 16.237 24.8021 9.15905 31.0318C8.74233 31.4062 7.56839 31.4723 7.15294 31.1471C6.33728 30.4994 6.74257 29.638 7.46548 28.9889C10.0344 26.6857 13.0125 25.1895 16.3031 24.3047C16.6817 24.2037 17.0476 24.0987 17.6612 23.9303ZM21.6747 3.39662C17.5888 3.39662 14.1648 6.69735 14.4049 10.6834C14.6336 14.4647 15.9638 17.904 18.4705 20.7565C20.6393 23.2243 22.6632 23.2178 24.8522 20.7708C27.0947 18.2551 28.2826 15.2109 28.8022 11.8855C29.5213 7.26086 26.2663 3.4018 21.6747 3.39662Z" fill="#853232"/>
  </g>
  <defs>
    <clipPath id="clip0_2773_24755">
      <rect width="43" height="60" fill="white" transform="translate(0.165039 0.574219)"/>
    </clipPath>
  </defs>
</svg>