<svg xmlns="http://www.w3.org/2000/svg" width="50" height="50" viewBox="0 0 50 50" fill="none">
  <g clip-path="url(#clip0_2775_24829)">
    <path d="M14.2359 49.9513C14.138 49.9065 14.0425 49.8534 13.9411 49.8168C13.1157 49.5232 12.5391 48.8063 12.5355 47.9301C12.5237 43.882 12.5355 39.8338 12.5355 35.7844C12.5417 35.7381 12.5516 35.6924 12.565 35.6476H14.5083V36.4684C14.5083 40.0846 14.5083 43.7008 14.5083 47.317C14.5083 47.9525 14.5083 47.9549 15.1404 47.9549C22.3067 47.9549 29.4723 47.9584 36.6371 47.9655C37.1087 47.9655 37.2267 47.8334 37.2267 47.3759C37.2031 45.2392 37.2184 43.1025 37.2149 40.9658C37.2149 38.9612 38.5238 37.6464 40.5296 37.6499C42.6828 37.6499 44.8348 37.6405 46.988 37.6617C47.4078 37.6617 47.5316 37.5568 47.5305 37.1264C47.5187 27.9051 47.5151 18.683 47.5199 9.4601C47.5199 7.35641 47.5092 5.25155 47.5293 3.14669C47.5293 2.72572 47.4173 2.59837 46.9892 2.59954C36.3379 2.61055 25.6859 2.61055 15.033 2.59954C14.6463 2.59954 14.4741 2.69388 14.5059 3.10896C14.5362 3.50943 14.5335 3.91172 14.4977 4.31173C14.4871 4.42965 14.3267 4.6313 14.2253 4.63719C13.6852 4.67021 13.1416 4.65252 12.5909 4.65252C12.5909 3.83298 12.5108 3.05825 12.611 2.30946C12.7395 1.293 13.5284 0.677457 14.5472 0.620856C14.6911 0.612602 14.8361 0.620856 14.9812 0.620856H47.0777C48.7097 0.620856 49.4903 1.4062 49.4903 3.04764C49.4903 15.0652 49.493 27.0828 49.4985 39.1003C49.5057 39.2731 49.4751 39.4454 49.4086 39.6051C49.3422 39.7648 49.2417 39.9081 49.1141 40.0248C45.9586 43.1623 42.8102 46.3068 39.6688 49.4584C39.5096 49.6176 39.3587 49.785 39.2042 49.9477L14.2359 49.9513Z" fill="#853232"/>
    <path d="M0.161133 38.2889C0.396972 37.0791 1.25896 36.3043 2.07968 35.4895C4.82485 32.7632 7.56569 30.0287 10.3022 27.2859C10.4521 27.1625 10.6141 27.0546 10.7857 26.9639L10.5498 26.8956C10.005 25.5312 9.33527 24.207 8.93906 22.7979C6.71863 14.9067 11.8988 6.59454 19.9468 5.04154C27.746 3.53689 35.1691 8.41757 36.8341 16.146C38.4649 23.7129 33.5854 31.3659 26.0445 33.0722C22.2875 33.9212 18.75 33.3674 15.4317 31.4107C15.1062 31.2185 14.9258 31.2409 14.6629 31.505C11.597 34.5922 8.52044 37.671 5.43331 40.7417C4.11143 42.0659 2.03134 41.9987 0.904025 40.5542C0.550267 40.1049 0.402868 39.4988 0.161133 38.9634V38.2889ZM10.3954 19.0952C10.4413 26.0076 15.9895 31.5121 22.8701 31.4767C24.4992 31.4673 26.1105 31.1361 27.6112 30.5021C29.112 29.8681 30.4727 28.9438 31.6151 27.7823C32.7576 26.6208 33.6592 25.245 34.2683 23.7339C34.8774 22.2229 35.1819 20.6064 35.1643 18.9773C35.0771 11.9045 29.1835 6.51907 22.4043 6.72897C19.192 6.8372 16.1465 8.18579 13.9073 10.4916C11.6681 12.7974 10.4094 15.8811 10.3954 19.0952Z" fill="#853232"/>
    <path d="M28.8946 37.5654H16.7041V35.6055H17.2819C20.9563 35.6055 24.6306 35.6197 28.305 35.5938C28.8215 35.5938 28.9382 35.7588 28.9029 36.2211C28.8687 36.6491 28.8946 37.0819 28.8946 37.5654Z" fill="#853232"/>
    <path d="M16.6895 45.7855V43.8398H28.8859C28.8859 44.4224 28.9047 44.9931 28.8658 45.5615C28.8658 45.6464 28.5899 45.7749 28.4413 45.7773C27.1737 45.7938 25.9072 45.7867 24.6396 45.7867H16.6895V45.7855Z" fill="#853232"/>
    <path d="M22.7648 41.6669C20.9028 41.6669 19.0397 41.6574 17.1777 41.6751C16.7839 41.6751 16.62 41.5772 16.6589 41.1657C16.6896 40.8457 16.6896 40.5235 16.6589 40.2035C16.6212 39.8155 16.7768 39.7106 17.1483 39.7129C19.0114 39.7271 20.8733 39.7188 22.7365 39.7129C24.5996 39.707 26.4615 39.7247 28.3235 39.707C28.748 39.707 28.9532 39.8049 28.9037 40.2671C28.8742 40.5711 28.8742 40.8771 28.9037 41.181C28.9378 41.5713 28.7669 41.6727 28.4001 41.6704C26.5229 41.6574 24.6432 41.6645 22.7648 41.6645V41.6669Z" fill="#853232"/>
    <path d="M20.5919 20.1128C19.9952 19.0515 19.3761 18.0846 18.8915 17.0469C18.6156 16.4573 18.546 15.7686 18.4198 15.1177C18.3891 14.9632 18.4351 14.7085 18.5377 14.6248C18.8915 14.3489 18.8361 13.9822 18.8502 13.6213C18.8714 13.0317 18.8243 12.4233 18.9304 11.8455C19.2417 10.1415 20.4292 9.08025 22.1626 8.91634C23.0599 8.83144 23.9644 8.83969 24.8217 9.17458C26.2284 9.72409 26.8959 10.8255 27.0326 12.2794C27.0716 12.6933 27.0409 13.1143 27.0527 13.5317C27.0633 13.9208 27.0527 14.2781 27.351 14.6401C27.5456 14.876 27.5338 15.3477 27.4784 15.7014C27.405 16.1579 27.2593 16.5997 27.0468 17.0103C26.5103 18.0386 25.9218 19.0397 25.324 20.1057C25.5598 20.2496 25.7839 20.4147 26.0315 20.5444C27.2249 21.167 28.4182 21.792 29.6245 22.3898C30.3496 22.7468 30.936 23.334 31.2919 24.0596C31.4475 24.3626 31.4098 24.5713 31.2235 24.8366C27.2449 30.709 18.6226 30.8387 14.4789 25.089C14.4006 25.0025 14.3513 24.8938 14.3378 24.778C14.3242 24.6621 14.3472 24.545 14.4035 24.4428C14.8457 23.47 15.5037 22.7483 16.4918 22.2837C17.7241 21.7035 18.9151 21.0373 20.1214 20.4041C20.2794 20.3227 20.4221 20.2201 20.5919 20.1128Z" fill="#853232"/>
  </g>
  <defs>
    <clipPath id="clip0_2775_24829">
      <rect width="49.3375" height="49.3304" fill="white" transform="translate(0.160156 0.625)"/>
    </clipPath>
  </defs>
</svg>