<svg width="44" height="44" viewBox="0 0 44 44" fill="none" xmlns="http://www.w3.org/2000/svg">
<circle cx="21.7683" cy="21.8435" r="21.0194" stroke="#31795A" stroke-width="1.07792"/>
<path d="M22.9385 29.3825L22.8448 29.4762L22.7417 29.3825C18.2923 25.3452 15.351 22.6755 15.351 19.9684C15.351 18.0949 16.7561 16.6899 18.6295 16.6899C20.0721 16.6899 21.4772 17.6266 21.9736 18.9005H23.7159C24.2124 17.6266 25.6175 16.6899 27.06 16.6899C28.9335 16.6899 30.3386 18.0949 30.3386 19.9684C30.3386 22.6755 27.3973 25.3452 22.9385 29.3825ZM27.06 14.8164C25.4301 14.8164 23.8658 15.5752 22.8448 16.7648C21.8238 15.5752 20.2594 14.8164 18.6295 14.8164C15.7444 14.8164 13.4775 17.0739 13.4775 19.9684C13.4775 23.4998 16.6624 26.3943 21.4865 30.7688L22.8448 32.0053L24.203 30.7688C29.0272 26.3943 32.212 23.4998 32.212 19.9684C32.212 17.0739 29.9452 14.8164 27.06 14.8164Z" fill="#31795A"/>
</svg>
