<svg width="44" height="44" viewBox="0 0 44 44" fill="none" xmlns="http://www.w3.org/2000/svg">
<circle cx="22.2351" cy="22.2537" r="21.0194" stroke="#31795A" stroke-width="1.07792"/>
<path d="M25.2956 17.1281C26.1632 16.2606 27.5698 16.2606 28.4373 17.1281C29.3049 17.9957 29.3049 19.4023 28.4373 20.2698L27.3494 21.3578C27.0891 21.6181 27.0891 22.04 27.3494 22.3003C27.6096 22.5606 28.0316 22.5606 28.2919 22.3003L29.3799 21.2124C30.768 19.8243 30.768 17.5737 29.3799 16.1856C27.9918 14.7975 25.7412 14.7975 24.3531 16.1856L21.6873 18.8514C20.2992 20.2395 20.2992 22.4901 21.6873 23.8782C21.7521 23.943 21.8188 24.0048 21.8874 24.0637C22.1667 24.3035 22.5874 24.2715 22.8272 23.9922C23.067 23.713 23.035 23.2922 22.7557 23.0524C22.7127 23.0155 22.6707 22.9766 22.6298 22.9357C21.7622 22.0681 21.7622 20.6615 22.6298 19.794L25.2956 17.1281Z" fill="#31795A"/>
<path d="M24.7366 20.4431C24.4574 20.2034 24.0366 20.2354 23.7968 20.5146C23.5571 20.7939 23.5891 21.2147 23.8683 21.4544C23.9113 21.4914 23.9534 21.5303 23.9943 21.5712C24.8618 22.4387 24.8618 23.8453 23.9943 24.7129L21.3284 27.3787C20.4609 28.2463 19.0543 28.2463 18.1867 27.3787C17.3192 26.5112 17.3192 25.1046 18.1867 24.237L19.2747 23.1491C19.5349 22.8888 19.5349 22.4668 19.2747 22.2065C19.0144 21.9463 18.5924 21.9463 18.3322 22.2065L17.2442 23.2945C15.8561 24.6826 15.8561 26.9332 17.2442 28.3213C18.6323 29.7094 20.8829 29.7094 22.271 28.3213L24.9368 25.6554C26.3249 24.2673 26.3249 22.0168 24.9368 20.6287C24.872 20.5639 24.8052 20.502 24.7366 20.4431Z" fill="#31795A"/>
</svg>
